<svg xmlns="http://www.w3.org/2000/svg" viewBox="0 0 64 64" id="csv">
  <g fill="#687484" class="color000000 svgShape">
    <path d="M57 2H11a1 1 0 0 0-1 1v3H7a1 1 0 0 0-1 1v54a1 1 0 0 0 1 1h46a1 1 0 0 0 1-1v-3h3a1 1 0 0 0 1-1V3a1 1 0 0 0-1-1ZM11 15a5 5 0 0 1 5-5h2a1 1 0 0 1 0 2h-2a3.009 3.009 0 0 0-3 3v2a3.009 3.009 0 0 0 3 3h2a1 1 0 0 1 0 2h-2a5 5 0 0 1-5-5Zm41 45H8V26h44ZM25.5 17h-1a3.5 3.5 0 0 1 0-7H26a3.009 3.009 0 0 1 3 3 1 1 0 0 1-2 0 1 1 0 0 0-1-1h-1.5a1.5 1.5 0 0 0 0 3h1a3.5 3.5 0 0 1 0 7H24a3.009 3.009 0 0 1-3-3 1 1 0 0 1 2 0 1 1 0 0 0 1 1h1.5a1.5 1.5 0 0 0 0-3Zm9.5 2.06 2-3.34V11a1 1 0 0 1 2 0v5a1 1 0 0 1-.14.51l-3 5a1 1 0 0 1-1.72 0l-3-5A1 1 0 0 1 31 16v-5a1 1 0 0 1 2 0v4.72ZM44 15V9.41L50.59 16H45a1 1 0 0 1-1-1Zm12 41h-2V17a1.033 1.033 0 0 0-.29-.71l-10-10A1.033 1.033 0 0 0 43 6H12V4h44Z" fill="#687484" class="color000000 svgShape"></path>
    <path d="M14.96 57h30.08A2.966 2.966 0 0 0 48 54.04V31.96A2.966 2.966 0 0 0 45.04 29H14.96A2.966 2.966 0 0 0 12 31.96v22.08A2.966 2.966 0 0 0 14.96 57ZM39 39h7v4h-7Zm0 6h7v4h-7Zm0 6h7v3.04a.96.96 0 0 1-.96.96H39ZM21 39h16v4H21Zm0 6h16v4H21Zm0 6h16v4H21Zm-7-12h5v4h-5Zm0 6h5v4h-5Zm0 6h5v4h-4.04a.96.96 0 0 1-.96-.96Z" fill="#687484" class="color000000 svgShape"></path>
  </g>
</svg>
